<?xml version="1.0" encoding="utf-8"?>
<!-- Generator: Adobe Illustrator 22.0.1, SVG Export Plug-In . SVG Version: 6.00 Build 0)  -->
<svg version="1.1" id="Layer_1" xmlns="http://www.w3.org/2000/svg" xmlns:xlink="http://www.w3.org/1999/xlink" x="0px" y="0px"
	 viewBox="0 0 184 184" style="enable-background:new 0 0 184 184;" xml:space="preserve">
<style type="text/css">
	.st0{fill:#8D2B2B;}
</style>
<g>
	<path class="st0" d="M18.7,115.2c-0.2-2.7,1-4.2,1.4-3.9c0.2,0.2-0.9,1.2-0.7,3.7c0.7,5.1,5.5,8.6,11.7,10.5
		c10.5-10.4,28.8-16.8,49.3-17.7c0.7-1.9,1.2-3.7,1.2-5.8c0-12.4-18-16.9-34.4-16.9c-18.1,0-37,6.8-46.2,18.3
		c1.8,14.8,7.2,28.6,15.2,40.4c1.8,0.5,3.8,1,5.7,1.3c0.2-7,3.2-13.1,8-18.3C23.5,124.4,19.2,120.2,18.7,115.2z"/>
	<path class="st0" d="M47.2,81.7c17.7,0,35.3,6.8,35.3,20.3c0,2-0.4,4-1,5.8c1.2-0.1,3.2-0.2,4.6-0.2c6.8,0,13.1,0.7,18.4,1.8
		c6.6-6.2,10.2-10,17.2-16.9c-17.8-0.4-37.2-6.4-37.2-21.1c0-10.1,10.1-16.1,20.4-16.1c7.1,0,13.7,2.7,15.9,7.4
		c0.7,1.4,0.7,2.8,0.2,2.8c-0.2,0.1,0-0.7-0.9-2.5c-2.2-4.5-8.7-6.7-15.3-6.6c-9.6,0.2-18.4,5.8-18.4,15.3
		c0,13.9,18.7,19.7,35.8,20.1c9.9-10.4,22.1-21.4,31.9-27c6.1-3.6,14.4-7.6,23.1-8.1C163.5,23.4,130.7,0,92.3,0
		c-50.8,0-92,41.2-92,92c0,3.2,0.2,6.3,0.5,9.4C10.3,89.3,28.9,81.7,47.2,81.7z"/>
	<path class="st0" d="M174.4,60.1c-4.9,0-11,3.5-16.8,10.5c-3.6,4.2-8.5,11.5-13.3,19c7-1.5,14.8-3.8,22.1-7.3
		c7.4-3.6,12.6-7,15.9-10c-1.1-5.1-2.6-10-4.5-14.7c-8.6,0.5-17.4,4.7-23,8.5c-9,6-14,10.6-28,25.6c3.4-0.1,7.6-0.5,11.9-1.2
		c4.6-6.8,11-14.7,16.6-20.6c6.1-6.3,13.4-10.6,18.7-10.6c2.2,0,3.5,0.6,3.2,1C177,60.8,176.7,60.1,174.4,60.1z"/>
	<path class="st0" d="M79.7,109.4c-19.4,0.9-37.2,6.6-47.5,16.3c2.7,0.6,5.7,1,8.7,1C56.8,126.7,74.2,119.9,79.7,109.4z"/>
	<path class="st0" d="M35.8,145.8c27.6-1.2,48-15.7,67.5-34.7c-5.6-1.2-11.9-1.9-17.7-1.9c-1.5,0-3,0-4.5,0.1
		c-5,11.8-21.8,19.5-38.3,19.5c-4.3,0-8.4-0.6-11.8-1.7c-5.1,5-8,11.1-8.2,18C27,145.8,31.4,146,35.8,145.8z"/>
	<path class="st0" d="M22.5,152c-0.4-1.8-0.6-3.6-0.6-5.6c-1.5-0.3-3.1-0.6-4.5-1C19,147.7,20.7,149.9,22.5,152z"/>
	<path class="st0" d="M166.9,83.8c-7.6,3.5-15.7,5.6-23.1,7c-5.4,8.6-10.3,17.4-15.8,25.6c-5.9,8.7-13.8,16.3-21.7,20.9
		c-0.7,0.4-1.7,0.9-2.7,1.2c1.7,0.2,4.6,0.2,7.1,0.2c4.1,0,8.2-1.2,10.8-3.3c1.8-1.4,2.7-2.2,3.7-3.1c0.3-0.2,0.9-1,1.2-0.7
		c0.2,0.2-0.1,0.6-0.3,0.8c-1.2,1.1-2.7,2.7-4.7,4.2c-3.5,2.9-7.9,4.2-12.5,4.2c-3.2,0-5.6-1.1-7.1-1.1c-1.7,0.4-4.5,0.7-6.1,0.7
		c-1.4,0-3.6-0.2-3.6-1.7c0-1.8,6.6-0.6,10-0.6c0.7-0.3,2.1-0.9,3.4-1.7c6.1-4.1,12.9-12,19-22.2c5.6-9.4,9.4-15.7,14.1-22.8
		c-4.5,0.6-8.7,0.9-12,0.9c-6.2,6.5-11,11.4-17.7,18c7.6,2,12.4,4.9,12.8,7.1v0.1c-1.6-1.7-7.1-3.9-14-5.6
		C88.2,131.3,68,146,35.7,147.2c-4.4,0.2-8.8,0-12.9-0.7c0.1,2.6,0.5,5,1.3,7.2c6.3,6.9,13.6,12.9,21.7,17.7c4.7,1.4,9.9,2.2,15,2.3
		c23.8,0.7,41.9-9.7,41.7-19.5c-0.1-1.8-0.4-3.8-1.8-5.4c-0.6-0.6-0.9-0.6-0.7-0.9c0.1-0.2,0.7,0,1.2,0.4c2.2,1.8,3.2,4.3,3.3,6.5
		c0.2,9.9-19.6,20.7-43.7,19.8c-3.9-0.1-7.8-0.6-11.5-1.3c12.8,6.8,27.5,10.7,43,10.7c50.8,0,92-41.2,92-92c0-6.2-0.6-12.3-1.8-18.2
		C179.1,77.1,174,80.5,166.9,83.8z"/>
</g>
</svg>
